<?xml version="1.0" standalone="no"?><!DOCTYPE svg PUBLIC "-//W3C//DTD SVG 1.1//EN" "http://www.w3.org/Graphics/SVG/1.1/DTD/svg11.dtd"><svg t="1646294787585" class="icon" viewBox="0 0 1024 1024" version="1.1" xmlns="http://www.w3.org/2000/svg" p-id="10891" width="32" height="32" xmlns:xlink="http://www.w3.org/1999/xlink"><defs><style type="text/css"></style></defs><path d="M739.408842 204.656281v103.298245c-135.527298 0-247.915789-41.319298-247.915789-41.319298-105.777404 64.458105-206.596491 41.319298-206.596492 41.319298v-103.298245s1.859368-123.957895 175.607018-123.957895l51.649123-51.649123 51.649123 51.649123c173.747649 0 175.607018 123.957895 175.607017 123.957895z" fill="#FFD248" p-id="10892"></path><path d="M615.450947 645.12v65.697684s-42.558877 51.649123-103.298245 51.649123-103.298246-51.649123-103.298246-51.649123V645.12c30.163088 15.701333 64.871298 24.378386 103.298246 24.378386s73.135158-8.677053 103.298245-24.378386zM284.896561 421.582596c0 13.832982 0.826386 27.477333 2.694737 40.690527-32.031439-4.329544-64.673684-34.905825-64.673684-61.350176 0-28.510316 27.68393-41.319298 61.978947-41.319298v61.978947zM739.408842 359.603649c34.295018 0 61.978947 12.808982 61.978947 41.319298 0 26.444351-32.642246 57.020632-64.664701 61.350176 1.859368-13.213193 2.694737-26.857544 2.694737-40.690527v-61.978947z" fill="#FFD7A3" p-id="10893"></path><path d="M736.723088 462.282105c-11.156211 80.779228-54.954667 148.542877-121.263158 182.837895-30.17207 15.701333-64.880281 24.378386-103.298246 24.378386-38.43593 0-73.14414-8.677053-103.298245-24.378386-66.326456-34.295018-110.124912-102.058667-121.281123-182.837895a292.79214 292.79214 0 0 1-2.685755-40.699509v-113.62807s100.819088 23.138807 206.596492-41.319298c0 0 112.388491 41.319298 247.915789 41.319298v113.62807c0 13.832982-0.826386 27.477333-2.685754 40.690527z" fill="#FFE1B2" p-id="10894"></path><path d="M904.686035 948.403649v51.649123h-196.266667c0-113.834667 99.166316-154.120982 127.056843-163.211228 69.003228 54.954667 69.209825 111.562105 69.209824 111.562105z" fill="#AFB6BB" p-id="10895"></path><path d="M835.476211 836.841544c-27.890526 9.090246-127.056842 49.376561-127.056843 163.211228h-392.533333c0-113.008281-97.72014-153.510175-126.437053-163.004632 28.716912-22.932211 69.209825-45.864421 126.437053-64.251508 0 0 11.982596-6.197895 27.68393-15.288141 24.584982 18.387088 107.636772 77.267088 168.582737 77.267088s143.997754-58.88 168.582737-77.267088c15.701333 9.090246 27.68393 15.28814 27.683929 15.288141 57.640421 18.180491 98.33993 40.906105 127.056843 64.044912z" fill="#E7ECED" p-id="10896"></path><path d="M615.450947 710.817684c13.222175 14.874947 42.97207 33.675228 65.284492 46.690807-24.584982 18.387088-107.636772 77.267088-168.582737 77.267088s-143.988772-58.88-168.582737-77.267088c22.312421-13.024561 52.062316-31.81586 65.284491-46.690807 0 0 42.558877 51.649123 103.298246 51.649123s103.298246-51.649123 103.298245-51.649123z" fill="#546A79" p-id="10897"></path><path d="M315.886035 1000.052772H119.619368v-51.649123s0.826386-56.194246 69.829614-111.355509c28.716912 9.503439 126.437053 49.996351 126.437053 163.004632z" fill="#AFB6BB" p-id="10898"></path><path d="M845.204211 824.769123c-33.666246-27.127018-77.671298-49.439439-130.802527-66.335439a758.568421 758.568421 0 0 1-25.851509-14.309052c-26.767719-15.620491-46.879439-29.462456-57.604491-39.612632v-50.21193c62.787368-35.893895 105.705544-100.289123 119.421755-179.110175 35.570526-10.186105 66.515088-43.564912 66.515087-74.266948 0-31.079298-23.354386-51.703018-61.978947-55.978666V204.422737c-0.017965-1.46414-0.817404-36.235228-25.537123-70.76379-38.885053-54.316912-106.675649-67.431298-159.079298-68.401403L512.143719 7.141053l-58.116491 58.116491c-52.412632 0.970105-120.203228 14.084491-159.079298 68.401403-24.728702 34.528561-25.52814 69.299649-25.546105 70.76379v140.521544c-38.624561 4.275649-61.978947 24.899368-61.978948 55.978666 0 30.702035 30.953544 64.080842 66.515088 74.257965 13.725193 78.856982 56.661333 143.252211 119.412772 179.110176v50.229894c-10.725053 10.141193-30.809825 23.983158-57.550597 39.576702a758.164211 758.164211 0 0 1-25.932351 14.353965c-52.277895 16.93193-96.049404 39.298246-130.101894 66.48814C105.91214 883.990456 104.169544 945.583158 104.124632 948.18807v67.368421h816.05614v-67.206737c0-2.604912-1.077895-64.718596-74.976561-123.562666zM512.152702 685.002105c31.16014 0 60.586667-5.362526 87.803509-15.916912v35.76814c-10.599298 11.084351-44.184702 42.127719-87.803509 42.12772-43.331368 0-77.159298-31.106246-87.803509-42.154667v-35.741193c27.243789 10.554386 56.661333 15.916912 87.803509 15.916912z m0 92.968421c48.469333 0 85.926175-28.528281 103.801263-45.352421 9.224982 7.760842 21.504 16.45586 36.729263 26.031158-80.500772 55.978667-127.41614 60.631579-140.530526 60.631579-45.199719 0-106.46007-37.277193-140.449684-60.676491 15.180351-9.548351 27.441404-18.234386 36.657403-25.986246 17.875088 16.82414 55.33193 45.352421 103.792281 45.352421z m273.740351-377.038596c0 12.656281-13.689263 29.884632-31.528421 39.397052 0.332351-6.126035 0.538947-64.224561 0.538947-64.224561 27.621053 3.862456 30.989474 18.144561 30.989474 24.827509zM460.503579 96.193123h6.422456l45.226667-45.235649 45.235649 45.235649h6.413474c154.821614 0 159.959579 103.406035 160.11228 108.624842v87.453193c-124.074667-2.928281-226.016561-39.792281-227.076491-40.178526l-7.006316-2.586948-6.395509 3.898386c-78.183298 47.642947-154.300632 44.687719-183.035508 41.301334V204.853895c0.179649-5.847579 5.730807-108.660772 160.103298-108.660772zM238.412351 400.922947c0-6.682947 3.377404-20.95607 30.989474-24.827508 0 0 0.215579 58.098526 0.556912 64.224561-17.84814-9.521404-31.546386-26.740772-31.546386-39.397053z m64.520982 59.194386a278.45614 278.45614 0 0 1-2.542035-38.534737V325.991298c34.582456 3.718737 111.562105 4.751719 192.826386-42.35228 25.905404 8.712982 118.604351 37.160421 230.696421 39.639578v98.304c0 13.617404-0.853333 26.58807-2.533052 38.57965-10.662175 77.159298-51.855719 139.551439-113.080141 171.205614-28.842667 15.027649-61.188491 22.635789-96.139228 22.635789-34.950737 0-67.305544-7.617123-96.18414-22.644772-61.179509-31.645193-102.382035-94.046316-113.044211-171.232561z m17.695439 327.428492s10.599298-5.254737 21.881263-11.587369c36.468772 26.345544 110.906386 74.31186 169.651649 74.31186 58.736281 0 133.182877-47.966316 169.642667-74.320842a525.294035 525.294035 0 0 0 21.962105 11.623298c38.894035 12.270035 72.344702 27.486316 99.884912 45.397333-15.925895 7.572211-34.762105 18.710456-52.520421 34.672281-34.798035 31.30386-54.083368 70.602105-57.577543 116.915649H330.805895c-6.602105-87.632842-68.590035-131.628912-109.568-151.291509 27.692912-18.036772 60.990877-33.378807 99.399859-45.720701zM135.114105 948.574316c0.07186-1.913263 2.290526-46.690807 57.433825-93.956491 31.429614 12.045474 99.453754 47.508211 107.124772 129.94021H135.114105v-35.983719z m754.077193 35.983719h-164.558596c7.68-82.961965 76.171228-118.263018 107.726596-130.191719 55.152281 47.148912 56.79607 92.249825 56.832 94.037333v36.154386z" fill="#231F20" p-id="10899"></path><path d="M512.152702 519.71593h41.319298v-30.989474h-25.824561v-67.14386h-30.989474v82.638597c0 8.560281 6.943439 15.494737 15.494737 15.494737z" fill="#231F20" p-id="10900"></path></svg>